<svg width="5477" height="3081" viewBox="0 0 5477 3081" fill="none" xmlns="http://www.w3.org/2000/svg">
<g clip-path="url(#clip0_284_16)">
<rect width="5476.64" height="3080.61" fill="#EC4949"/>
<path d="M2238.98 1668.34H2277.15V1552.76H2369.76V1518.12H2277.15V1489.13C2277.15 1460.5 2292.35 1448.13 2314.97 1448.13C2337.59 1448.13 2352.79 1460.15 2352.79 1489.49H2390.61C2390.61 1438.59 2360.21 1412.78 2314.97 1412.78C2269.73 1412.78 2238.98 1438.23 2238.98 1489.13V1668.34ZM2490.1 1672.93C2531.1 1672.93 2562.91 1651.73 2576.34 1618.85H2534.99C2525.45 1631.93 2510.6 1637.94 2490.1 1637.94C2462.88 1637.94 2441.67 1622.74 2436.37 1594.82H2583.41V1581.03C2583.41 1528.01 2545.24 1489.13 2490.1 1489.13C2434.96 1489.13 2396.08 1528.01 2396.08 1581.03C2396.08 1634.05 2434.96 1672.93 2490.1 1672.93ZM2437.43 1562.65C2444.15 1537.56 2463.94 1524.13 2490.1 1524.13C2515.55 1524.13 2536.4 1537.2 2543.12 1562.65H2437.43ZM2697.9 1672.93C2738.9 1672.93 2770.71 1651.73 2784.14 1618.85H2742.79C2733.24 1631.93 2718.4 1637.94 2697.9 1637.94C2670.68 1637.94 2649.47 1622.74 2644.17 1594.82H2791.21V1581.03C2791.21 1528.01 2753.04 1489.13 2697.9 1489.13C2642.76 1489.13 2603.88 1528.01 2603.88 1581.03C2603.88 1634.05 2642.76 1672.93 2697.9 1672.93ZM2645.23 1562.65C2651.95 1537.56 2671.74 1524.13 2697.9 1524.13C2723.35 1524.13 2744.2 1537.2 2750.92 1562.65H2645.23ZM2906.05 1672.93C2960.48 1672.93 2999.01 1636.17 2999.01 1579.62V1417.38H2960.83V1521.65C2948.46 1500.8 2925.84 1489.13 2899.33 1489.13C2855.5 1489.13 2811.67 1520.59 2811.67 1579.62C2811.67 1634.76 2850.55 1672.93 2906.05 1672.93ZM2905.69 1637.59C2872.47 1637.59 2850.2 1613.9 2850.2 1581.03C2850.2 1548.16 2872.47 1524.48 2905.69 1524.48C2938.57 1524.48 2960.83 1548.16 2960.83 1581.03C2960.83 1613.9 2938.57 1637.59 2905.69 1637.59ZM3120.74 1672.93C3161.74 1672.93 3193.55 1651.73 3206.98 1618.85H3165.63C3156.09 1631.93 3141.24 1637.94 3120.74 1637.94C3093.52 1637.94 3072.31 1622.74 3067.01 1594.82H3214.05V1581.03C3214.05 1528.01 3175.88 1489.13 3120.74 1489.13C3065.6 1489.13 3026.72 1528.01 3026.72 1581.03C3026.72 1634.05 3065.6 1672.93 3120.74 1672.93ZM3068.07 1562.65C3074.79 1537.56 3094.58 1524.13 3120.74 1524.13C3146.19 1524.13 3167.04 1537.2 3173.76 1562.65H3068.07ZM3322.17 1672.93C3351.16 1672.93 3375.9 1659.15 3386.86 1632.28V1668.34H3421.85V1582.45C3421.85 1526.25 3383.68 1489.13 3328.89 1489.13C3273.4 1489.13 3234.52 1527.31 3234.52 1582.8C3234.52 1641.47 3278.34 1672.93 3322.17 1672.93ZM3328.54 1637.59C3295.31 1637.59 3273.04 1613.9 3273.04 1581.03C3273.04 1548.16 3295.31 1524.48 3328.54 1524.48C3361.76 1524.48 3383.68 1548.16 3383.68 1581.03C3383.68 1613.9 3361.76 1637.59 3328.54 1637.59ZM3527.32 1672.93C3569.39 1672.93 3598.02 1649.6 3598.02 1601.53V1597.29H3560.2V1601.53C3560.2 1627.34 3546.76 1637.59 3527.32 1637.59C3507.88 1637.59 3494.8 1626.98 3494.8 1601.53V1528.37H3587.77V1493.73H3494.8V1431.87H3456.63V1601.53C3456.63 1649.6 3485.26 1672.93 3527.32 1672.93Z" fill="white"/>
<path fill-rule="evenodd" clip-rule="evenodd" d="M2107.87 1548.56C2103.91 1541.02 2093.41 1520.75 2095.14 1508.24C2095.14 1508.24 2107.21 1462.85 2066.81 1431.7C2066.81 1431.7 2089.37 1401.38 2070.73 1391.28C2052.1 1381.18 2036.78 1411.45 2036.78 1411.45C2026.52 1402.28 2019.87 1399.77 2005.74 1401.38L2016.71 1391.28C2002.7 1391.61 1995.27 1393.1 1983.88 1401.38L1996.64 1382.12C1974.48 1388.22 1962.54 1392.93 1945.58 1411.43C1945.58 1411.43 1917.15 1362.58 1888.38 1386.59C1859.6 1410.59 1898 1445.83 1898 1445.83C1898 1445.83 1875.82 1481.8 1869.68 1536.87C1863.54 1591.94 1871.15 1642.38 1891.13 1666.61H1891.15C1909.17 1688.49 1932.52 1702.2 2005.66 1701.71C2078.81 1701.22 2098.48 1683.56 2112.08 1658.97C2121.99 1641.02 2134.84 1599.95 2107.86 1548.57L2107.87 1548.56ZM1908.59 1436.36C1908.59 1436.36 1879.62 1409.5 1894.21 1394.74C1908.81 1379.98 1930.14 1415.71 1930.14 1415.71C1911.12 1411.78 1907.36 1417.41 1908.59 1436.36ZM2034.75 1448.77C2040.97 1448.77 2046.02 1457.46 2046.02 1468.16C2046.02 1478.87 2040.96 1487.56 2034.75 1487.56C2028.53 1487.56 2023.47 1478.87 2023.47 1468.16C2023.47 1457.46 2028.53 1448.77 2034.75 1448.77ZM1978.97 1519.68C1982.51 1518.39 1990.26 1532.44 2007.83 1521.35C1999.43 1519.61 1990.1 1510.21 1990.1 1502.59C1990.1 1493.94 2024.67 1490.11 2027.87 1497.95C2030.78 1505.09 2023.07 1518.31 2013.89 1521.1C2025.27 1529.5 2036.18 1516.72 2037.95 1517.92C2040 1519.28 2034.07 1525.22 2027.45 1527.45C2021.79 1551.87 2017.42 1567.5 2007.04 1567.5C1999.25 1567.5 1991.15 1550.62 1983.73 1526.15C1983.73 1526.15 1975.42 1520.98 1978.97 1519.68ZM1953.4 1465.22C1953.4 1452.64 1959.38 1442.38 1966.76 1442.38C1974.15 1442.38 1980.06 1452.58 1980.06 1465.22C1980.06 1477.85 1974.08 1488.05 1966.7 1488.05C1959.31 1488.05 1953.4 1477.8 1953.4 1465.22ZM2006.62 1668.85C1986.46 1668.85 1969.34 1657.35 1963.09 1641.34C1974.39 1636.36 2001.25 1623.73 1999.49 1617.07C1998.05 1611.65 1978.18 1612.17 1963.61 1613.31C1970.25 1597.97 1987 1587.07 2006.62 1587.07C2026.24 1587.07 2041.68 1597.14 2048.81 1611.54C2037.01 1616.57 2011.28 1628.39 2012.89 1634.92C2014.31 1640.64 2036.26 1640.09 2050.97 1639.05C2045.52 1656.24 2027.73 1668.85 2006.62 1668.85ZM2060.04 1422.04C2060.04 1422.04 2060.04 1422.05 2060.04 1422.06H2060.01C2060.01 1422.06 2060.02 1422.05 2060.04 1422.04C2060.65 1411.71 2058.58 1408.64 2048.16 1410.85C2048.16 1410.85 2059.73 1391.26 2067.74 1399.29C2075.63 1407.2 2060.48 1421.62 2060.04 1422.05V1422.04Z" fill="white"/>
<g filter="url(#filter0_d_284_16)">
<path d="M2350.95 1875.34H2359.49V1847.23H2384.52C2403.14 1847.23 2411.56 1836.55 2411.56 1822.43C2411.56 1808.2 2403.26 1797.76 2384.52 1797.76H2350.95V1875.34ZM2359.49 1839.4V1805.59H2384.63C2398.04 1805.59 2402.9 1812.83 2402.9 1822.43C2402.9 1832.04 2398.04 1839.4 2384.63 1839.4H2359.49ZM2419.82 1875.34H2427.77V1840.23C2427.77 1828.01 2434.41 1822.55 2444.49 1822.55C2454.46 1822.55 2461.22 1828.01 2461.22 1840.23V1841.06H2469.05V1840.35C2469.05 1823.38 2459.08 1815.2 2444.49 1815.2C2429.9 1815.2 2419.82 1823.38 2419.82 1840.23V1875.34ZM2483.1 1805.35C2486.54 1805.35 2489.15 1802.74 2489.15 1799.3C2489.15 1795.86 2486.54 1793.26 2483.1 1793.26C2479.66 1793.26 2477.05 1795.86 2477.05 1799.3C2477.05 1802.74 2479.66 1805.35 2483.1 1805.35ZM2479.18 1875.34H2487.13V1816.74H2479.18V1875.34ZM2523.92 1875.34H2533.41L2559.74 1816.74H2551.08L2528.78 1867.75L2506.48 1816.74H2497.58L2523.92 1875.34ZM2593.19 1876.88C2604.58 1876.88 2614.3 1871.3 2618.45 1860.87V1875.34H2625.81V1846.4C2625.81 1827.89 2612.88 1815.2 2594.37 1815.2C2575.87 1815.2 2562.82 1828.13 2562.82 1846.4C2562.82 1865.14 2576.7 1876.88 2593.19 1876.88ZM2594.37 1869.53C2580.38 1869.53 2570.89 1859.56 2570.89 1846.04C2570.89 1832.52 2580.38 1822.55 2594.37 1822.55C2608.37 1822.55 2617.86 1832.52 2617.86 1846.04C2617.86 1859.56 2608.37 1869.53 2594.37 1869.53ZM2666.66 1876.88C2681.84 1876.88 2693.35 1868.1 2696.79 1855.05H2688.72C2685.52 1863.83 2677.33 1869.53 2666.66 1869.53C2652.66 1869.53 2643.17 1859.56 2643.17 1846.04C2643.17 1832.52 2652.66 1822.55 2666.66 1822.55C2677.33 1822.55 2685.52 1828.25 2688.72 1837.02H2696.79C2693.35 1823.98 2681.84 1815.2 2666.66 1815.2C2648.15 1815.2 2635.1 1828.25 2635.1 1846.04C2635.1 1863.83 2648.15 1876.88 2666.66 1876.88ZM2734.87 1901.91C2751.24 1901.91 2764.17 1893.6 2764.17 1873.2V1816.74H2756.22V1846.99C2756.22 1861.34 2747.8 1869.17 2735.23 1869.17C2722.53 1869.17 2714.23 1861.46 2714.23 1846.99V1816.74H2706.28V1846.99C2706.28 1867.03 2718.38 1876.52 2734.04 1876.52C2744.24 1876.52 2752.07 1872.02 2756.22 1863.59V1873.44C2756.22 1888.74 2747.44 1894.91 2734.87 1894.91C2725.14 1894.91 2717.91 1891 2714.82 1883.05H2706.88C2710.55 1895.74 2721.59 1901.91 2734.87 1901.91ZM2811.28 1875.34H2819.82V1847.23H2844.85C2863.47 1847.23 2871.9 1836.55 2871.9 1822.43C2871.9 1808.2 2863.59 1797.76 2844.85 1797.76H2811.28V1875.34ZM2819.82 1839.4V1805.59H2844.97C2858.37 1805.59 2863.24 1812.83 2863.24 1822.43C2863.24 1832.04 2858.37 1839.4 2844.97 1839.4H2819.82ZM2909.33 1876.88C2927.84 1876.88 2940.89 1863.83 2940.89 1846.04C2940.89 1828.25 2927.84 1815.2 2909.33 1815.2C2890.83 1815.2 2877.78 1828.25 2877.78 1846.04C2877.78 1863.83 2890.83 1876.88 2909.33 1876.88ZM2909.33 1869.53C2895.34 1869.53 2885.85 1859.56 2885.85 1846.04C2885.85 1832.52 2895.34 1822.55 2909.33 1822.55C2923.33 1822.55 2932.82 1832.52 2932.82 1846.04C2932.82 1859.56 2923.33 1869.53 2909.33 1869.53ZM2952.37 1875.34H2960.32V1791.12H2952.37V1875.34ZM2980.38 1805.35C2983.82 1805.35 2986.43 1802.74 2986.43 1799.3C2986.43 1795.86 2983.82 1793.26 2980.38 1793.26C2976.94 1793.26 2974.33 1795.86 2974.33 1799.3C2974.33 1802.74 2976.94 1805.35 2980.38 1805.35ZM2976.47 1875.34H2984.42V1816.74H2976.47V1875.34ZM3027.37 1876.88C3042.56 1876.88 3054.06 1868.1 3057.5 1855.05H3049.43C3046.23 1863.83 3038.05 1869.53 3027.37 1869.53C3013.38 1869.53 3003.89 1859.56 3003.89 1846.04C3003.89 1832.52 3013.38 1822.55 3027.37 1822.55C3038.05 1822.55 3046.23 1828.25 3049.43 1837.02H3057.5C3054.06 1823.98 3042.56 1815.2 3027.37 1815.2C3008.87 1815.2 2995.82 1828.25 2995.82 1846.04C2995.82 1863.83 3008.87 1876.88 3027.37 1876.88ZM3095.59 1901.91C3111.96 1901.91 3124.88 1893.6 3124.88 1873.2V1816.74H3116.94V1846.99C3116.94 1861.34 3108.52 1869.17 3095.94 1869.17C3083.25 1869.17 3074.95 1861.46 3074.95 1846.99V1816.74H3067V1846.99C3067 1867.03 3079.1 1876.52 3094.76 1876.52C3104.96 1876.52 3112.79 1872.02 3116.94 1863.59V1873.44C3116.94 1888.74 3108.16 1894.91 3095.59 1894.91C3085.86 1894.91 3078.62 1891 3075.54 1883.05H3067.59C3071.27 1895.74 3082.3 1901.91 3095.59 1901.91Z" fill="white"/>
</g>
<path d="M3168.78 3102.89L2620.45 1848.3C2598.3 1797.6 2594.41 1740.8 2609.45 1687.56L3087.11 -2.85" stroke="url(#paint0_linear_284_16)" stroke-width="9.19439"/>
<path d="M3905.25 3131.96L5184.3 1175.31C5229.67 1105.9 5235.83 1017.94 5200.58 942.883L4756.38 -2.84953" stroke="url(#paint1_linear_284_16)" stroke-width="9.19439"/>
<path d="M-75.5356 1256.33L634.3 1914.88C674.758 1952.42 731.954 1973.23 794.667 1973.23L1192.83 1973.23" stroke="url(#paint2_linear_284_16)" stroke-width="9.19439"/>
<path d="M5477.16 3131.96L5301.94 2299.93C5290.84 2247.2 5262.24 2199.76 5220.78 2165.32L4442.63 1518.83L2801.36 134.174C2713.02 59.6447 2584 58.9929 2494.91 132.625L1222.68 1184.12C1161.35 1234.81 1129.26 1312.7 1137.08 1391.89L1241.98 2453.27C1247.86 2512.76 1231.24 2572.29 1195.39 2620.13L827.421 3111.19" stroke="url(#paint3_linear_284_16)" stroke-width="9.19439"/>
</g>
<defs>
<filter id="filter0_d_284_16" x="2293.9" y="1734.07" width="888.034" height="224.885" filterUnits="userSpaceOnUse" color-interpolation-filters="sRGB">
<feFlood flood-opacity="0" result="BackgroundImageFix"/>
<feColorMatrix in="SourceAlpha" type="matrix" values="0 0 0 0 0 0 0 0 0 0 0 0 0 0 0 0 0 0 127 0" result="hardAlpha"/>
<feOffset/>
<feGaussianBlur stdDeviation="28.5242"/>
<feComposite in2="hardAlpha" operator="out"/>
<feColorMatrix type="matrix" values="0 0 0 0 1 0 0 0 0 1 0 0 0 0 1 0 0 0 0.3 0"/>
<feBlend mode="normal" in2="BackgroundImageFix" result="effect1_dropShadow_284_16"/>
<feBlend mode="normal" in="SourceGraphic" in2="effect1_dropShadow_284_16" result="shape"/>
</filter>
<linearGradient id="paint0_linear_284_16" x1="3168.78" y1="1550.02" x2="2586.19" y2="1550.02" gradientUnits="userSpaceOnUse">
<stop stop-color="white"/>
<stop offset="1" stop-color="white" stop-opacity="0"/>
</linearGradient>
<linearGradient id="paint1_linear_284_16" x1="3905.25" y1="1564.55" x2="5257.3" y2="1564.55" gradientUnits="userSpaceOnUse">
<stop stop-color="white"/>
<stop offset="1" stop-color="white" stop-opacity="0"/>
</linearGradient>
<linearGradient id="paint2_linear_284_16" x1="634.773" y1="1462.37" x2="502.933" y2="1916.88" gradientUnits="userSpaceOnUse">
<stop stop-color="white"/>
<stop offset="1" stop-color="white" stop-opacity="0"/>
</linearGradient>
<linearGradient id="paint3_linear_284_16" x1="827.421" y1="1568.7" x2="5477.16" y2="1568.7" gradientUnits="userSpaceOnUse">
<stop stop-color="white"/>
<stop offset="1" stop-color="white" stop-opacity="0"/>
</linearGradient>
<clipPath id="clip0_284_16">
<rect width="5476.64" height="3080.61" fill="white"/>
</clipPath>
</defs>
</svg>
